<svg xmlns="http://www.w3.org/2000/svg" xmlns:xlink="http://www.w3.org/1999/xlink" width="32.166" height="36.359" viewBox="0 0 32.166 36.359">
  <defs>
    <linearGradient id="linear-gradient" y1="0.5" x2="1" y2="0.5" gradientUnits="objectBoundingBox">
      <stop offset="0" stop-color="#9547ff"/>
      <stop offset="0.659" stop-color="#00ffce"/>
      <stop offset="1" stop-color="#246bea"/>
    </linearGradient>
    <linearGradient id="linear-gradient-3" x1="0.482" y1="1.06" x2="0.555" y2="-0.237" xlink:href="#linear-gradient"/>
    <linearGradient id="linear-gradient-4" x1="0.306" y1="1.554" x2="0.573" y2="-0.35" xlink:href="#linear-gradient"/>
  </defs>
  <g id="Group_36495" data-name="Group 36495" transform="translate(-814 -480)">
    <g id="Group_873" data-name="Group 873" transform="translate(827.433 505.947)">
      <path id="Path_1599" data-name="Path 1599" d="M132.36,266.478a.155.155,0,0,1-.083-.024l-2.077-1.307a.157.157,0,0,1-.052-.213l2.077-3.516a.157.157,0,0,1,.135-.077h0a.157.157,0,0,1,.135.077l2.075,3.516a.157.157,0,0,1-.051.213l-2.075,1.307A.161.161,0,0,1,132.36,266.478Zm-1.865-1.515,1.865,1.173,1.863-1.173-1.863-3.157Z" transform="translate(-130.126 -261.341)" fill="url(#linear-gradient)"/>
      <path id="Path_1600" data-name="Path 1600" d="M132.359,304.157a.156.156,0,0,1-.127-.065l-2.077-2.883a.157.157,0,0,1,.211-.224l1.994,1.254,1.994-1.254a.157.157,0,0,1,.211.224l-2.077,2.883A.156.156,0,0,1,132.359,304.157Zm-1.48-2.478,1.48,2.054,1.479-2.054-1.4.879a.156.156,0,0,1-.167,0Z" transform="translate(-130.125 -296.632)" fill="url(#linear-gradient)"/>
    </g>
    <g id="Group_874" data-name="Group 874" transform="translate(814 480)">
      <g id="Group_72" data-name="Group 72" transform="translate(0 0.033)">
        <path id="Path_1597" data-name="Path 1597" d="M23.24,60.443a6.116,6.116,0,0,1-4.268-1.822,6.206,6.206,0,0,1-1.785-3.574H9.15a2,2,0,0,1-1.993-1.993v-4a2.024,2.024,0,0,1,.578-1.421L10.3,45V40.03a12.965,12.965,0,0,1,7.851-12.065A5.443,5.443,0,0,1,19.9,25.321a5.271,5.271,0,0,1,3.344-1.205V25.5a3.979,3.979,0,0,0-3.833,3.125l-.08.359-.343.134a11.582,11.582,0,0,0-7.3,10.912v5.533L8.726,48.6a.648.648,0,0,0-.185.455v4a.611.611,0,0,0,.61.61h9.373l0,.69a4.842,4.842,0,0,0,4.715,4.705,4.841,4.841,0,0,0,4.715-4.705l0-.69H37.33a.611.611,0,0,0,.61-.61v-4h1.384v4a2,2,0,0,1-1.993,1.993H29.294a6.205,6.205,0,0,1-1.785,3.574A6.117,6.117,0,0,1,23.24,60.443Z" transform="translate(-7.157 -24.116)" fill="url(#linear-gradient-3)"/>
      </g>
      <g id="Group_73" data-name="Group 73" transform="translate(11.418)">
        <path id="Path_1598" data-name="Path 1598" d="M116.048,23.818a4.228,4.228,0,0,0-4.367,4.05,60.392,60.392,0,0,0,1.475,9.782c.787,3.859,1.68,7.829,2.107,10.317h0a.815.815,0,0,0,1.57,0c.429-2.488,1.323-6.457,2.111-10.317a60.335,60.335,0,0,0,1.476-9.782,4.23,4.23,0,0,0-4.372-4.05Zm0,1.409a2.708,2.708,0,0,1,2.782,2.641,62.041,62.041,0,0,1-1.45,9.532c-.444,2.174-.919,4.376-1.331,6.349-.411-1.973-.887-4.175-1.33-6.349a62.127,62.127,0,0,1-1.45-9.532,2.708,2.708,0,0,1,2.778-2.641Z" transform="translate(-111.681 -23.818)" fill-rule="evenodd" fill="url(#linear-gradient-4)"/>
      </g>
    </g>
  </g>
</svg>
