<svg xmlns="http://www.w3.org/2000/svg" width="48.234" height="48.234" viewBox="0 0 48.234 48.234">
  <path id="Icon_ionic-ios-arrow-dropleft-circle" data-name="Icon ionic-ios-arrow-dropleft-circle" d="M26.992,3.375A23.617,23.617,0,1,0,50.609,26.992,23.614,23.614,0,0,0,26.992,3.375ZM31.92,36.2a2.2,2.2,0,0,1,0,3.1,2.165,2.165,0,0,1-1.544.636,2.2,2.2,0,0,1-1.556-.647L18.147,28.582a2.189,2.189,0,0,1,.068-3.02L29.047,14.7a2.192,2.192,0,1,1,3.1,3.1l-9.3,9.2Z" transform="translate(-2.875 -2.875)" fill="#00ffce" stroke="#00ffce" stroke-width="1"/>
</svg>
