<svg xmlns="http://www.w3.org/2000/svg" width="9.777" height="9.787" viewBox="0 0 9.777 9.787">
  <path id="Path_1826" data-name="Path 1826" d="M98.925,27.441v1.624h.812V27.441Zm4.883,0v1.624h.812V27.441ZM97.29,28.664a.411.411,0,0,0-.411.411V30.3a.411.411,0,0,0,.411.411v6.518h8.954V30.7a.411.411,0,0,0,.411-.411V29.065a.411.411,0,0,0-.411-.411h-1.213v.812H103.4v-.812h-3.248v.812H98.525v-.812H97.29Zm.823,2.035h7.33v5.695h-7.33Zm.812.812v.812h.812v-.812Zm1.624,0v.812h.812v-.812Zm1.635,0v.812H103v-.812Zm1.624,0v.812h.812v-.812Zm-4.883,1.624v.812h.812v-.812Zm1.624,0v.812h.812v-.812Zm1.635,0v.812H103v-.812Zm1.624,0v.812h.812v-.812Zm-4.883,1.635v.812h.812v-.812Zm1.624,0v.812h.812v-.812Zm1.635,0v.812H103v-.812Zm1.624,0v.812h.812v-.812Z" transform="translate(-96.879 -27.441)" fill="#00ffce"/>
</svg>
