<svg xmlns="http://www.w3.org/2000/svg" width="31.431" height="31.459" viewBox="0 0 31.431 31.459">
  <path id="Icon_awesome-arrow-down" data-name="Icon awesome-arrow-down" d="M20.889,11.831l1.117,1.117a1.2,1.2,0,0,1,0,1.7l-9.772,9.777a1.2,1.2,0,0,1-1.7,0L.752,14.652a1.2,1.2,0,0,1,0-1.7l1.117-1.117a1.208,1.208,0,0,1,1.725.02l5.774,6.06V3.457A1.2,1.2,0,0,1,10.574,2.25h1.609A1.2,1.2,0,0,1,13.39,3.457V17.911l5.774-6.06A1.2,1.2,0,0,1,20.889,11.831Z" transform="translate(14.819 33.375) rotate(-137)" fill="#fff"/>
</svg>
