<svg xmlns="http://www.w3.org/2000/svg" width="11.002" height="14.893" viewBox="0 0 11.002 14.893">
  <g id="Group_36410" data-name="Group 36410" transform="translate(-72.386 -38.608)">
    <path id="Path_26014" data-name="Path 26014" d="M77.248,38.922c-2.093-.64-1.512-.465-.756,2.093h.872c-.174-.465-.523-1.047-.291-1.1.291-.116.465.581.64,1.1H78c.233-.523.407-1.221.64-1.1.233.058-.058.64-.233,1.1h.814c.756-2.558,1.4-2.733-.756-2.093-.872.291-.349.291-1.221,0Zm2.035,2.384c-.756,0-2.907-.116-3.14.174a.447.447,0,0,0,.349.756c.7,0,2.849.174,3.14-.116h0A.5.5,0,0,0,79.283,41.305Zm-2.675,1.279c-.407,1.163-3.14,2.093-4.012,5.349a4.219,4.219,0,0,0,1.686,5c1.454.756,5.7.756,7.21,0a4.219,4.219,0,0,0,1.686-5c-.93-3.256-3.663-4.186-4.012-5.349h-.756c.174.349.465.814.233.872-.233.116-.407-.407-.581-.872h-.349c-.233.465-.407.988-.64.872-.233-.058.058-.523.233-.872Z" fill="#00ffce" fill-rule="evenodd"/>
  </g>
</svg>
