<svg xmlns="http://www.w3.org/2000/svg" width="16.134" height="14.893" viewBox="0 0 16.134 14.893">
  <g id="Icon_ionic-ios-wallet" data-name="Icon ionic-ios-wallet" transform="translate(-3.375 -4.499)">
    <path id="Path_26012" data-name="Path 26012" d="M17.182,11.25H5.7a2.329,2.329,0,0,0-2.327,2.327v6.516A2.329,2.329,0,0,0,5.7,22.419h11.48a2.329,2.329,0,0,0,2.327-2.327V13.577A2.329,2.329,0,0,0,17.182,11.25Z" transform="translate(0 -3.027)" fill="#00ffce"/>
    <path id="Path_26013" data-name="Path 26013" d="M15.317,4.538l-9.11,1.78c-.7.155-1.706.857-1.706,1.71a2.444,2.444,0,0,1,1.9-.737H17.531V6.5a2.227,2.227,0,0,0-.539-1.458h0A1.834,1.834,0,0,0,15.317,4.538Z" transform="translate(-0.504)" fill="#00ffce"/>
  </g>
</svg>
