<svg xmlns="http://www.w3.org/2000/svg" width="13.626" height="13.626" viewBox="0 0 13.626 13.626">
  <g id="Group_36462" data-name="Group 36462" transform="translate(-6 -6)">
    <g id="Group_36461" data-name="Group 36461" transform="translate(6 6)">
      <path id="Path_26015" data-name="Path 26015" d="M6,10.956a1.239,1.239,0,0,1,1.24-1.24h7.43a1.239,1.239,0,0,1,1.24,1.24v7.43a1.239,1.239,0,0,1-1.24,1.24H7.24A1.239,1.239,0,0,1,6,18.386v-7.43Zm5.574,1.237H10.336v1.858H8.477V15.29h1.858v1.858h1.239V15.29h1.858V14.052H11.574V12.194Zm6.813,3.716a1.24,1.24,0,0,0,1.239-1.239V13.432H18.387v1.239H17.149V15.91Zm1.239-8.671A1.24,1.24,0,0,0,18.387,6H17.149V7.239h1.239V8.477h1.239V7.239ZM10.955,6A1.24,1.24,0,0,0,9.716,7.239V8.477h1.239V7.239h1.239V6Zm2.477,0H15.91V7.239H13.432V6Zm4.955,3.716h1.239v2.477H18.387V9.716Z" transform="translate(-6 -6)" fill="#00ffce" fill-rule="evenodd"/>
    </g>
  </g>
</svg>
