<svg xmlns="http://www.w3.org/2000/svg" width="47.234" height="47.234" viewBox="0 0 47.234 47.234">
  <path id="Icon_ionic-ios-arrow-dropleft-circle" data-name="Icon ionic-ios-arrow-dropleft-circle" d="M26.992,3.375A23.617,23.617,0,1,1,3.375,26.992,23.614,23.614,0,0,1,26.992,3.375ZM22.064,36.2a2.2,2.2,0,0,0,0,3.1,2.165,2.165,0,0,0,1.544.636,2.2,2.2,0,0,0,1.556-.647L35.837,28.582a2.189,2.189,0,0,0-.068-3.02L24.937,14.7a2.192,2.192,0,1,0-3.1,3.1l9.3,9.2Z" transform="translate(-3.375 -3.375)" fill="#00ffce"/>
</svg>
