<svg id="Group_881" data-name="Group 881" xmlns="http://www.w3.org/2000/svg" width="56" height="56" viewBox="0 0 56 56">
  <g id="Group_158" data-name="Group 158" transform="translate(10 14.419)">
    <path id="Path_1624" data-name="Path 1624" d="M-3195.918,135.767c.495-.311.642-1.174.941-1.8h.279a1.068,1.068,0,0,0,.246.112,27.035,27.035,0,0,1,6.424,1.975,1.672,1.672,0,0,1,.693.527,29.171,29.171,0,0,1,4.782,11.6c.278,1.711.374,3.452.553,5.179v.419c-.045.669-.127,1.339-.124,2.008a1.267,1.267,0,0,1-.663,1.256c-1.327.758-2.6,1.625-3.959,2.306-1.4.7-2.879,1.224-4.324,1.826h-.279l-1.875-3.063,3.019-1.469c-.455-.66-.887-.569-1.448-.337a21.12,21.12,0,0,1-16.761-.025.947.947,0,0,0-1.378.376l3.011,1.448-1.87,3.07h-.279a6.482,6.482,0,0,0-.611-.275,30.59,30.59,0,0,1-7.727-3.9,1.262,1.262,0,0,1-.6-1.145c-.008-.693-.082-1.385-.127-2.077v-.558c.029-.3.076-.6.085-.9a29.969,29.969,0,0,1,4.538-14.714,4,4,0,0,1,2.423-2c1.892-.524,3.769-1.1,5.652-1.649h.279c.234.5.5.987.693,1.5.145.378.343.408.73.39m12.8,13.074a3.48,3.48,0,0,0-2.585-3.528,3.237,3.237,0,0,0-3.767,2.505,3.681,3.681,0,0,0,2.229,4.47A3.322,3.322,0,0,0-3190.8,148.935Zm-15.231,3.588a3.4,3.4,0,0,0,3.29-3.387,3.522,3.522,0,0,0-2.591-3.732,3.17,3.17,0,0,0-3.65,2.186C-3209.822,149.912-3208.282,152.486-3206.028,152.523Z" transform="translate(3218 -133.971)" fill="#00ffce"/>
  </g>
  <g id="Ellipse_23" data-name="Ellipse 23" fill="none" stroke="#00ffce" stroke-width="1">
    <circle cx="28" cy="28" r="28" stroke="none"/>
    <circle cx="28" cy="28" r="27.5" fill="none"/>
  </g>
</svg>
