<svg xmlns="http://www.w3.org/2000/svg" xmlns:xlink="http://www.w3.org/1999/xlink" width="104" height="95" viewBox="0 0 104 95">
  <defs>
    <clipPath id="clip-learn">
      <rect width="104" height="95"/>
    </clipPath>
  </defs>
  <g id="learn" clip-path="url(#clip-learn)">
    <path id="Icon_map-book-store" data-name="Icon map-book-store" d="M64.656,70.524V8.712A7.293,7.293,0,0,0,57.384,1.44H13.752A7.293,7.293,0,0,0,6.48,8.712V77.8a7.293,7.293,0,0,0,7.272,7.272H57.384c3.378,0,7.272,0,7.272-3.636V79.615H15.57a3.647,3.647,0,0,1-3.636-3.636V70.525H64.656ZM15.57,15.984a1.823,1.823,0,0,1,1.818-1.818h36.36a1.823,1.823,0,0,1,1.818,1.818V19.62a1.823,1.823,0,0,1-1.818,1.818H17.388A1.823,1.823,0,0,1,15.57,19.62V15.984Zm0,14.544a1.823,1.823,0,0,1,1.818-1.818h36.36a1.823,1.823,0,0,1,1.818,1.818v3.636a1.823,1.823,0,0,1-1.818,1.818H17.388a1.823,1.823,0,0,1-1.818-1.818V30.528Z" transform="translate(16.857 5.206)" fill="#00ffce"/>
  </g>
</svg>
