<svg xmlns="http://www.w3.org/2000/svg" xmlns:xlink="http://www.w3.org/1999/xlink" width="104" height="95" viewBox="0 0 104 95">
  <defs>
    <clipPath id="clip-logout">
      <rect width="104" height="95"/>
    </clipPath>
  </defs>
  <g id="logout" clip-path="url(#clip-logout)">
    <g id="Group_21" data-name="Group 21" transform="translate(-157.041 -34.715)">
      <path id="Path_17" data-name="Path 17" d="M388.876,203.917a.184.184,0,0,0,.051-.151c.051-.051.051-.1.1-.2,0-.051.05-.1.05-.151s.051-.1.051-.151a1.659,1.659,0,0,0,0-.705c0-.051-.051-.1-.051-.151s-.05-.1-.05-.151c-.051-.051-.051-.1-.1-.2a.173.173,0,0,0-.051-.1,1.082,1.082,0,0,0-.2-.251l-9.516-9.516a1.78,1.78,0,0,0-2.517,2.517l6.495,6.5h-21.3a1.762,1.762,0,0,0,0,3.525h21.247l-6.5,6.495a1.78,1.78,0,0,0,2.518,2.517l9.516-9.516a.665.665,0,0,0,.252-.3Z" transform="translate(-149.041 -124.825)" fill="#00ffce"/>
      <path id="Path_18" data-name="Path 18" d="M219.545,41.18V72.748H216.02V42.942H190.6l16.464,5.79a1.785,1.785,0,0,1,1.208,1.661V124.2a1.706,1.706,0,0,1-.755,1.46,1.813,1.813,0,0,1-1.007.3,2.552,2.552,0,0,1-.6-.1L179.569,116.7h-.049a.174.174,0,0,1-.1-.051c-.051-.051-.1-.051-.2-.1-.051,0-.051-.051-.1-.051-.051-.051-.151-.1-.2-.151l-.051-.051c-.051-.1-.151-.151-.2-.251l-.051-.051a.38.38,0,0,1-.1-.2c0-.051-.051-.051-.051-.1a.3.3,0,0,1-.051-.2v-.1c0-.1-.051-.2-.051-.3V41.18a1.1,1.1,0,0,1,.051-.4c0-.051,0-.051.051-.1.051-.1.051-.2.1-.252a.173.173,0,0,1,.051-.1.7.7,0,0,1,.151-.2l.1-.1c.051-.1.151-.151.2-.2l.051-.051a2.167,2.167,0,0,1,.353-.2c.051,0,.051,0,.1-.051a.545.545,0,0,1,.251-.051h37.911a1.693,1.693,0,0,1,1.812,1.712Z" transform="translate(0 0)" fill="#00ffce"/>
      <path id="Path_19" data-name="Path 19" d="M371.8,283.919v31.568a1.751,1.751,0,0,1-1.762,1.762H364v-3.525h4.28V283.919H371.8Z" transform="translate(-152.256 -200.498)" fill="#00ffce"/>
    </g>
  </g>
</svg>
