<svg xmlns="http://www.w3.org/2000/svg" width="31.161" height="31.148" viewBox="0 0 31.161 31.148">
  <g id="Group_36228" data-name="Group 36228" transform="translate(-610.991 -656.479)">
    <g id="Group_36232" data-name="Group 36232" transform="translate(191.032 772.567)">
      <path id="Path_26006" data-name="Path 26006" d="M450.122-101.962a1.528,1.528,0,0,0-1.919.7.373.373,0,0,1-.395.235c-.562-.014-1.125-.005-1.687-.005h-1.241c0-1.11.06-2.184-.019-3.246a2.213,2.213,0,0,1,.856-2.073,1.292,1.292,0,0,1,.988-.4c.218.02.358.042.477.266a1.508,1.508,0,0,0,1.685.737,1.55,1.55,0,0,0,1.2-1.4,1.555,1.555,0,0,0-1.013-1.575,1.466,1.466,0,0,0-1.777.549.705.705,0,0,1-.8.394c-.106-.015-.217.008-.324,0a.867.867,0,0,0-.774.313c-.359.387-.741.752-1.116,1.129-.673-.356-1.322-.7-1.97-1.044-.343-.183-.821-.288-.989-.575s-.059-.775-.062-1.173c0-.58,0-1.16,0-1.761.482,0,.924.009,1.365,0a.37.37,0,0,1,.4.228,1.513,1.513,0,0,0,1.73.763,1.541,1.541,0,0,0,1.181-1.515,1.541,1.541,0,0,0-1.165-1.494,1.514,1.514,0,0,0-1.738.746.394.394,0,0,1-.423.243c-.584-.012-1.168-.007-1.752,0-.447,0-.632.185-.634.629,0,.757,0,1.514,0,2.271v.54c-1.376-.728-2.694-1.42-4-2.128a.415.415,0,0,1-.143-.312c-.013-.627,0-1.254-.01-1.881a.33.33,0,0,1,.2-.35,1.515,1.515,0,0,0,.79-1.746,1.54,1.54,0,0,0-1.517-1.178,1.54,1.54,0,0,0-1.493,1.166,1.519,1.519,0,0,0,.776,1.753.33.33,0,0,1,.213.343q-.017.94,0,1.881a.356.356,0,0,1-.221.378c-.645.328-1.28.676-1.919,1.014-.656.346-1.313.69-2.016,1.059v-.363c0-.8,0-1.6,0-2.4,0-.5-.175-.675-.686-.676-.573,0-1.147-.009-1.719,0a.374.374,0,0,1-.4-.232,1.469,1.469,0,0,0-1.283-.807,1.557,1.557,0,0,0-1.607,1.273,1.564,1.564,0,0,0,.993,1.738,1.559,1.559,0,0,0,1.9-.7c.053-.092.143-.226.221-.229.5-.021,1.009-.011,1.539-.011,0,.963,0,1.89-.005,2.818a.269.269,0,0,1-.12.2c-.959.516-1.922,1.023-2.9,1.542a7.287,7.287,0,0,1-.573-.594,1.944,1.944,0,0,0-1.982-.859.4.4,0,0,1-.305-.19,1.557,1.557,0,0,0-1.308-.833,1.555,1.555,0,0,0-1.611,1.267,1.561,1.561,0,0,0,.987,1.741,1.525,1.525,0,0,0,1.894-.7.434.434,0,0,1,.422-.248,1.075,1.075,0,0,1,1.041.423c.184.238.44.418.63.653a.84.84,0,0,1,.192.473c.017,1.07.009,2.141.009,3.211v.957c-1.049,0-2.063,0-3.077-.01-.079,0-.179-.124-.231-.213a1.553,1.553,0,0,0-1.768-.759,1.542,1.542,0,0,0-1.156,1.5,1.542,1.542,0,0,0,1.157,1.5,1.514,1.514,0,0,0,1.758-.765.354.354,0,0,1,.372-.22c.9.008,1.8,0,2.693,0,.082,0,.163.016.253.025,0,1.442,0,2.858-.005,4.274a.45.45,0,0,1-.123.277,6.9,6.9,0,0,1-1.02.992,1.709,1.709,0,0,1-.884.127c-.089,0-.2-.155-.265-.26a1.565,1.565,0,0,0-1.671-.725A1.554,1.554,0,0,0,421-93.9,1.553,1.553,0,0,0,422-92.314a1.428,1.428,0,0,0,1.759-.5.844.844,0,0,1,.946-.43c.075.006.152-.007.227,0a.854.854,0,0,0,.77-.323c.352-.38.725-.741,1.1-1.121.981.519,1.945,1.025,2.9,1.546a.385.385,0,0,1,.122.291c.01.7.005,1.406.005,2.108v.612c-.5,0-.958-.009-1.411,0a.327.327,0,0,1-.343-.213,1.519,1.519,0,0,0-1.754-.776,1.541,1.541,0,0,0-1.167,1.493,1.542,1.542,0,0,0,1.178,1.517,1.515,1.515,0,0,0,1.747-.79.331.331,0,0,1,.35-.2q.925.012,1.849,0a.525.525,0,0,0,.587-.579c.007-.259,0-.519,0-.778,0-.676,0-1.352,0-2.044a.683.683,0,0,1,.126.03c1.29.68,2.58,1.358,3.864,2.05a.407.407,0,0,1,.156.3c.014.638.016,1.276,0,1.913a.437.437,0,0,1-.183.313,1.56,1.56,0,0,0-.793,1.783,1.546,1.546,0,0,0,1.5,1.163,1.542,1.542,0,0,0,1.513-1.184,1.515,1.515,0,0,0-.8-1.744.33.33,0,0,1-.2-.353c.007-.616.011-1.233,0-1.849a.38.38,0,0,1,.239-.4c1.216-.634,2.426-1.281,3.638-1.922.082-.043.169-.074.26-.114a.6.6,0,0,1,.019.092q0,1.3,0,2.6c0,.569.158.723.737.723.562,0,1.125.006,1.687,0a.351.351,0,0,1,.373.217,1.524,1.524,0,0,0,1.911.721,1.553,1.553,0,0,0,1-1.581,1.551,1.551,0,0,0-1.214-1.389,1.563,1.563,0,0,0-1.691.743c-.055.093-.138.238-.212.241-.513.021-1.028.011-1.554.011,0-.955,0-1.863.007-2.77a.367.367,0,0,1,.164-.265c.939-.509,1.885-1.006,2.882-1.533a8.844,8.844,0,0,1,.628.69,1.777,1.777,0,0,0,1.852.767.318.318,0,0,1,.376.208,1.51,1.51,0,0,0,1.753.775,1.542,1.542,0,0,0,1.165-1.495,1.54,1.54,0,0,0-1.181-1.515,1.537,1.537,0,0,0-1.752.788c-.036.064-.065.146-.121.181a1.547,1.547,0,0,1-1.064-.162c-.3-.3-.609-.585-.888-.9a.745.745,0,0,1-.18-.445c-.014-1.287-.008-2.573-.008-3.86v-.323c1.042,0,2.036-.005,3.03.009a.414.414,0,0,1,.269.2,1.554,1.554,0,0,0,1.282.821,1.555,1.555,0,0,0,1.626-1.248A1.558,1.558,0,0,0,450.122-101.962Zm-1.577-5.816a.523.523,0,0,1,.486.539.523.523,0,0,1-.532.494.521.521,0,0,1-.5-.524A.521.521,0,0,1,448.546-107.777Zm-4.158-4.153a.522.522,0,0,1,.49.535.522.522,0,0,1-.527.5.521.521,0,0,1-.506-.519A.521.521,0,0,1,444.388-111.93ZM426.677-110.9a.523.523,0,0,1-.484-.541.524.524,0,0,1,.534-.493.523.523,0,0,1,.5.526A.524.524,0,0,1,426.677-110.9Zm-4.128,4.153a.521.521,0,0,1-.509-.517.522.522,0,0,1,.508-.518.523.523,0,0,1,.525.5A.523.523,0,0,1,422.549-106.744Zm-.514,6.263a.525.525,0,0,1-.541.485.523.523,0,0,1-.492-.534.523.523,0,0,1,.525-.5A.523.523,0,0,1,422.035-100.481Zm.515,7.232a.521.521,0,0,1-.51-.516.522.522,0,0,1,.507-.519.522.522,0,0,1,.527.532A.524.524,0,0,1,422.55-93.249Zm4.157,4.153a.522.522,0,0,1-.514-.544.524.524,0,0,1,.535-.49.523.523,0,0,1,.5.528A.524.524,0,0,1,426.707-89.1Zm17.667-1.033a.521.521,0,0,1,.5.52.521.521,0,0,1-.512.513.521.521,0,0,1-.521-.5A.521.521,0,0,1,444.373-90.13Zm-9.354-24.4a.521.521,0,0,1,.539-.519.522.522,0,0,1,.494.531.522.522,0,0,1-.523.5A.52.52,0,0,1,435.019-114.526Zm1.033,28.038a.524.524,0,0,1-.52.506.522.522,0,0,1-.513-.544.524.524,0,0,1,.535-.49A.523.523,0,0,1,436.052-86.488Zm7.494-8.981q-3.886,2.042-7.761,4.106a.468.468,0,0,1-.5,0q-3.9-2.078-7.817-4.138a.384.384,0,0,1-.243-.4q.01-4.606,0-9.212a.4.4,0,0,1,.26-.418q3.9-2.051,7.788-4.124a.5.5,0,0,1,.531,0q3.86,2.056,7.731,4.092a.5.5,0,0,1,.315.519c-.015,1.514-.007,3.027-.007,4.541s-.008,3.027.007,4.541A.475.475,0,0,1,443.547-95.469Zm5,1.187a.523.523,0,0,1,.486.539.523.523,0,0,1-.532.494.521.521,0,0,1-.5-.524A.521.521,0,0,1,448.546-94.282ZM449.555-100a.521.521,0,0,1-.519-.539.522.522,0,0,1,.531-.495.521.521,0,0,1,.5.523A.521.521,0,0,1,449.555-100Z" fill="#d2d2d2"/>
      <path id="Path_26007" data-name="Path 26007" d="M525.044-28.144q-3.44-1.7-6.864-3.429a.857.857,0,0,0-.853,0q-3.455,1.746-6.923,3.464a.7.7,0,0,0-.445.707c.012,1.319,0,2.638,0,3.956,0,1.34.007,2.681,0,4.021a.7.7,0,0,0,.441.71q3.469,1.719,6.926,3.465a.858.858,0,0,0,.854,0q3.427-1.728,6.866-3.431a.79.79,0,0,0,.5-.808q-.021-3.924,0-7.848A.789.789,0,0,0,525.044-28.144Zm-.8,8.7q-3.133,1.552-6.257,3.126a.464.464,0,0,1-.475,0q-3.121-1.574-6.254-3.125a.394.394,0,0,1-.262-.414q.014-3.55,0-7.1a.393.393,0,0,1,.263-.414q3.133-1.551,6.254-3.125a.463.463,0,0,1,.475,0q3.124,1.572,6.257,3.125a.394.394,0,0,1,.261.417c-.012,1.189-.006,2.377-.006,3.566s-.006,2.356.006,3.534A.394.394,0,0,1,524.244-19.447Z" transform="translate(-82.215 -77.1)" fill="#d2d2d2"/>
      <path id="Path_26008" data-name="Path 26008" d="M537.107,34.165c0-.093-.012-.186-.018-.282h-1.035V36.2c-.367-.623-.683-1.257-1-1.89-.182-.363-.4-.506-.669-.424-.326.1-.4.35-.394.661.007,1.405,0,2.81,0,4.215,0,.093.011.187.017.277h1.031v-2.3c.37.619.687,1.251,1,1.883.181.36.4.508.668.427.324-.1.4-.349.4-.661C537.1,36.975,537.108,35.57,537.107,34.165Z" transform="translate(-104.168 -136.976)" fill="#d2d2d2"/>
      <path id="Path_26009" data-name="Path 26009" d="M582.7,33.957c-.484,0-.66.179-.66.668q0,2.124,0,4.248c0,.083.009.166.015.251h1.04V37.057h1.517V36.026h-1.515V34.984h2.042V33.956C584.313,33.956,583.505,33.955,582.7,33.957Z" transform="translate(-148.059 -137.065)" fill="#d2d2d2"/>
      <path id="Path_26010" data-name="Path 26010" d="M630.26,35.265h1.033V39.4h1.037V35.265h1V34.257H630.26Z" transform="translate(-192.111 -137.34)" fill="#d2d2d2"/>
    </g>
  </g>
</svg>
