<svg xmlns="http://www.w3.org/2000/svg" width="189.04" height="189.04" viewBox="0 0 189.04 189.04">
  <g id="Group_27765" data-name="Group 27765" transform="translate(1.718 1.718)">
    <g id="Group_27764" data-name="Group 27764" transform="translate(45.622 49.41)">
      <path id="Path_12465" data-name="Path 12465" d="M175.676,190.172h0a21.5,21.5,0,0,1-21.438-21.436h0A21.5,21.5,0,0,1,175.676,147.3h0a21.5,21.5,0,0,1,21.436,21.438h0A21.5,21.5,0,0,1,175.676,190.172Z" transform="translate(-129.465 -147.298)" fill="none" stroke="#07f6d1" stroke-linecap="round" stroke-linejoin="round" stroke-width="2.48"/>
      <path id="Path_12466" data-name="Path 12466" d="M145.307,189a23.34,23.34,0,0,1,23.272-23.269h45.875A23.34,23.34,0,0,1,237.726,189" transform="translate(-145.307 -114.597)" fill="none" stroke="#07f6d1" stroke-linecap="round" stroke-linejoin="round" stroke-width="2.48"/>
    </g>
    <circle id="Ellipse_27" data-name="Ellipse 27" cx="65.621" cy="65.621" r="65.621" transform="translate(0 92.802) rotate(-45)" fill="none" stroke="#00d1a9" stroke-miterlimit="10" stroke-width="2.43"/>
  </g>
</svg>
