<svg id="Group_879" data-name="Group 879" xmlns="http://www.w3.org/2000/svg" width="56" height="56" viewBox="0 0 56 56">
  <g id="Ellipse_25" data-name="Ellipse 25" fill="none" stroke="#00ffce" stroke-width="1">
    <circle cx="28" cy="28" r="28" stroke="none"/>
    <circle cx="28" cy="28" r="27.5" fill="none"/>
  </g>
  <path id="Path_1866" data-name="Path 1866" d="M2164.556,26.84a4.086,4.086,0,0,0-4.085-4.085,3.923,3.923,0,0,0-2.811,1.144,20.2,20.2,0,0,0-10.883-3.464l1.863-8.726,6.046,1.275a2.91,2.91,0,1,0,2.909-3.039,2.827,2.827,0,0,0-2.582,1.634l-6.765-1.438a.814.814,0,0,0-.556.1.8.8,0,0,0-.327.458l-2.059,9.739a19.8,19.8,0,0,0-11.046,3.464,4.068,4.068,0,0,0-6.9,2.941,4.071,4.071,0,0,0,2.418,3.726,7.64,7.64,0,0,0-.1,1.242c0,6.275,7.288,11.34,16.308,11.34s16.308-5.066,16.308-11.34a7.268,7.268,0,0,0-.1-1.209A4.228,4.228,0,0,0,2164.556,26.84Zm-27.943,2.909a2.909,2.909,0,1,1,2.909,2.909A2.915,2.915,0,0,1,2136.614,29.749Zm16.243,7.68c-1.993,1.994-5.785,2.124-6.9,2.124s-4.935-.163-6.9-2.124a.763.763,0,0,1,1.078-1.078c1.242,1.242,3.922,1.7,5.85,1.7s4.575-.458,5.85-1.7a.77.77,0,0,1,1.079,0A.841.841,0,0,1,2152.856,37.429Zm-.523-4.771a2.909,2.909,0,1,1,2.909-2.909A2.915,2.915,0,0,1,2152.333,32.658Z" transform="translate(-2118.366 1.056)" fill="#00ffce"/>
</svg>
