<svg xmlns="http://www.w3.org/2000/svg" width="22.166" height="19.395" viewBox="0 0 22.166 19.395">
  <path id="Icon_awesome-wallet" data-name="Icon awesome-wallet" d="M19.967,6.406H3.463a.693.693,0,0,1,0-1.385H20.088a.692.692,0,0,0,.693-.693A2.078,2.078,0,0,0,18.7,2.25H2.771A2.771,2.771,0,0,0,0,5.021V18.875a2.771,2.771,0,0,0,2.771,2.771h17.2a2.143,2.143,0,0,0,2.2-2.078V8.484A2.143,2.143,0,0,0,19.967,6.406Zm-1.957,9A1.385,1.385,0,1,1,19.4,14.026,1.386,1.386,0,0,1,18.01,15.411Z" transform="translate(0 -2.25)" fill="#fff" opacity="0.8"/>
</svg>
