<svg id="Group_878" data-name="Group 878" xmlns="http://www.w3.org/2000/svg" width="56" height="56" viewBox="0 0 56 56">
  <path id="Path_1865" data-name="Path 1865" d="M71.2,90.8,108.4,78.985a.739.739,0,0,1,.937.9l-6.507,23.808a.739.739,0,0,1-.975.5l-13.141-4.97a.74.74,0,0,1-.235-1.24l10.308-9.34a.739.739,0,0,0-.82-1.212L80.711,95.819a.738.738,0,0,1-.6.019L71.15,92.19a.739.739,0,0,1,.055-1.389Zm20.676,2.013a.355.355,0,0,0-.408-.575L83.249,96.73a1.819,1.819,0,0,0-.838,2.119l2.54,8.552a.6.6,0,0,0,.995.256l5.07-4.8a.41.41,0,0,0-.127-.668l-5.261-2.622a.464.464,0,0,1-.112-.752l6.363-6Z" transform="translate(-61.689 -64.949)" fill="#00ffce"/>
  <g id="Ellipse_25" data-name="Ellipse 25" fill="none" stroke="#00ffce" stroke-width="1">
    <circle cx="28" cy="28" r="28" stroke="none"/>
    <circle cx="28" cy="28" r="27.5" fill="none"/>
  </g>
</svg>
